<svg width="313" height="38" viewBox="0 0 313 38" fill="none" xmlns="http://www.w3.org/2000/svg">
<path d="M13.696 28L7.936 17.992H4.804V28H0.7V2.98H9.34C11.26 2.98 12.88 3.316 14.2 3.988C15.544 4.66 16.54 5.56 17.188 6.688C17.86 7.816 18.196 9.076 18.196 10.468C18.196 12.1 17.716 13.588 16.756 14.932C15.82 16.252 14.368 17.152 12.4 17.632L18.592 28H13.696ZM4.804 14.716H9.34C10.876 14.716 12.028 14.332 12.796 13.564C13.588 12.796 13.984 11.764 13.984 10.468C13.984 9.172 13.6 8.164 12.832 7.444C12.064 6.7 10.9 6.328 9.34 6.328H4.804V14.716ZM22.0781 17.992C22.0781 16 22.4861 14.236 23.3021 12.7C24.1421 11.164 25.2701 9.976 26.6861 9.136C28.1261 8.272 29.7101 7.84 31.4381 7.84C32.9981 7.84 34.3541 8.152 35.5061 8.776C36.6821 9.376 37.6181 10.132 38.3141 11.044V8.164H42.4541V28H38.3141V25.048C37.6181 25.984 36.6701 26.764 35.4701 27.388C34.2701 28.012 32.9021 28.324 31.3661 28.324C29.6621 28.324 28.1021 27.892 26.6861 27.028C25.2701 26.14 24.1421 24.916 23.3021 23.356C22.4861 21.772 22.0781 19.984 22.0781 17.992ZM38.3141 18.064C38.3141 16.696 38.0261 15.508 37.4501 14.5C36.8981 13.492 36.1661 12.724 35.2541 12.196C34.3421 11.668 33.3581 11.404 32.3021 11.404C31.2461 11.404 30.2621 11.668 29.3501 12.196C28.4381 12.7 27.6941 13.456 27.1181 14.464C26.5661 15.448 26.2901 16.624 26.2901 17.992C26.2901 19.36 26.5661 20.56 27.1181 21.592C27.6941 22.624 28.4381 23.416 29.3501 23.968C30.2861 24.496 31.2701 24.76 32.3021 24.76C33.3581 24.76 34.3421 24.496 35.2541 23.968C36.1661 23.44 36.8981 22.672 37.4501 21.664C38.0261 20.632 38.3141 19.432 38.3141 18.064ZM49.9325 5.536C49.1885 5.536 48.5645 5.284 48.0605 4.78C47.5565 4.276 47.3045 3.652 47.3045 2.908C47.3045 2.164 47.5565 1.54 48.0605 1.036C48.5645 0.531999 49.1885 0.279999 49.9325 0.279999C50.6525 0.279999 51.2645 0.531999 51.7685 1.036C52.2725 1.54 52.5245 2.164 52.5245 2.908C52.5245 3.652 52.2725 4.276 51.7685 4.78C51.2645 5.284 50.6525 5.536 49.9325 5.536ZM51.9485 31.888C51.9485 33.832 51.4565 35.236 50.4725 36.1C49.5125 36.988 48.1085 37.432 46.2605 37.432H44.1365V33.976H45.5405C46.3805 33.976 46.9685 33.808 47.3045 33.472C47.6645 33.16 47.8445 32.632 47.8445 31.888V8.164H51.9485V31.888ZM55.9687 17.992C55.9687 16 56.3767 14.236 57.1927 12.7C58.0327 11.164 59.1607 9.976 60.5767 9.136C62.0167 8.272 63.6007 7.84 65.3287 7.84C66.8887 7.84 68.2447 8.152 69.3967 8.776C70.5727 9.376 71.5087 10.132 72.2047 11.044V8.164H76.3447V28H72.2047V25.048C71.5087 25.984 70.5607 26.764 69.3607 27.388C68.1607 28.012 66.7927 28.324 65.2567 28.324C63.5527 28.324 61.9927 27.892 60.5767 27.028C59.1607 26.14 58.0327 24.916 57.1927 23.356C56.3767 21.772 55.9687 19.984 55.9687 17.992ZM72.2047 18.064C72.2047 16.696 71.9167 15.508 71.3407 14.5C70.7887 13.492 70.0567 12.724 69.1447 12.196C68.2327 11.668 67.2487 11.404 66.1927 11.404C65.1367 11.404 64.1527 11.668 63.2407 12.196C62.3287 12.7 61.5847 13.456 61.0087 14.464C60.4567 15.448 60.1807 16.624 60.1807 17.992C60.1807 19.36 60.4567 20.56 61.0087 21.592C61.5847 22.624 62.3287 23.416 63.2407 23.968C64.1767 24.496 65.1607 24.76 66.1927 24.76C67.2487 24.76 68.2327 24.496 69.1447 23.968C70.0567 23.44 70.7887 22.672 71.3407 21.664C71.9167 20.632 72.2047 19.432 72.2047 18.064ZM86.5232 11.512V22.492C86.5232 23.236 86.6912 23.776 87.0272 24.112C87.3872 24.424 87.9872 24.58 88.8272 24.58H91.3472V28H88.1072C86.2592 28 84.8432 27.568 83.8592 26.704C82.8752 25.84 82.3832 24.436 82.3832 22.492V11.512H80.0432V8.164H82.3832V3.232H86.5232V8.164H91.3472V11.512H86.5232ZM118.269 28L108.585 16.804V28H104.481V2.98H108.585V14.392L118.305 2.98H123.453L112.581 15.508L123.633 28H118.269ZM137.523 7.84C139.035 7.84 140.379 8.164 141.555 8.812C142.755 9.46 143.691 10.42 144.363 11.692C145.059 12.964 145.407 14.5 145.407 16.3V28H141.339V16.912C141.339 15.136 140.895 13.78 140.007 12.844C139.119 11.884 137.907 11.404 136.371 11.404C134.835 11.404 133.611 11.884 132.699 12.844C131.811 13.78 131.367 15.136 131.367 16.912V28H127.263V1.36H131.367V10.468C132.063 9.628 132.939 8.98 133.995 8.524C135.075 8.068 136.251 7.84 137.523 7.84ZM149.273 17.992C149.273 16 149.681 14.236 150.497 12.7C151.337 11.164 152.465 9.976 153.881 9.136C155.321 8.272 156.905 7.84 158.633 7.84C160.193 7.84 161.549 8.152 162.701 8.776C163.877 9.376 164.813 10.132 165.509 11.044V8.164H169.649V28H165.509V25.048C164.813 25.984 163.865 26.764 162.665 27.388C161.465 28.012 160.097 28.324 158.561 28.324C156.857 28.324 155.297 27.892 153.881 27.028C152.465 26.14 151.337 24.916 150.497 23.356C149.681 21.772 149.273 19.984 149.273 17.992ZM165.509 18.064C165.509 16.696 165.221 15.508 164.645 14.5C164.093 13.492 163.361 12.724 162.449 12.196C161.537 11.668 160.553 11.404 159.497 11.404C158.441 11.404 157.457 11.668 156.545 12.196C155.633 12.7 154.889 13.456 154.313 14.464C153.761 15.448 153.485 16.624 153.485 17.992C153.485 19.36 153.761 20.56 154.313 21.592C154.889 22.624 155.633 23.416 156.545 23.968C157.481 24.496 158.465 24.76 159.497 24.76C160.553 24.76 161.537 24.496 162.449 23.968C163.361 23.44 164.093 22.672 164.645 21.664C165.221 20.632 165.509 19.432 165.509 18.064ZM185.048 7.84C186.608 7.84 188 8.164 189.224 8.812C190.472 9.46 191.444 10.42 192.14 11.692C192.836 12.964 193.184 14.5 193.184 16.3V28H189.116V16.912C189.116 15.136 188.672 13.78 187.784 12.844C186.896 11.884 185.684 11.404 184.148 11.404C182.612 11.404 181.388 11.884 180.476 12.844C179.588 13.78 179.144 15.136 179.144 16.912V28H175.04V8.164H179.144V10.432C179.816 9.616 180.668 8.98 181.7 8.524C182.756 8.068 183.872 7.84 185.048 7.84ZM197.051 17.992C197.051 16 197.459 14.236 198.275 12.7C199.115 11.164 200.243 9.976 201.659 9.136C203.099 8.272 204.695 7.84 206.447 7.84C207.743 7.84 209.015 8.128 210.263 8.704C211.535 9.256 212.543 10 213.287 10.936V1.36H217.427V28H213.287V25.012C212.615 25.972 211.679 26.764 210.479 27.388C209.303 28.012 207.947 28.324 206.411 28.324C204.683 28.324 203.099 27.892 201.659 27.028C200.243 26.14 199.115 24.916 198.275 23.356C197.459 21.772 197.051 19.984 197.051 17.992ZM213.287 18.064C213.287 16.696 212.999 15.508 212.423 14.5C211.871 13.492 211.139 12.724 210.227 12.196C209.315 11.668 208.331 11.404 207.275 11.404C206.219 11.404 205.235 11.668 204.323 12.196C203.411 12.7 202.667 13.456 202.091 14.464C201.539 15.448 201.263 16.624 201.263 17.992C201.263 19.36 201.539 20.56 202.091 21.592C202.667 22.624 203.411 23.416 204.323 23.968C205.259 24.496 206.243 24.76 207.275 24.76C208.331 24.76 209.315 24.496 210.227 23.968C211.139 23.44 211.871 22.672 212.423 21.664C212.999 20.632 213.287 19.432 213.287 18.064ZM240.997 17.596C240.997 18.34 240.949 19.012 240.853 19.612H225.697C225.817 21.196 226.405 22.468 227.461 23.428C228.517 24.388 229.813 24.868 231.349 24.868C233.557 24.868 235.117 23.944 236.029 22.096H240.457C239.857 23.92 238.765 25.42 237.181 26.596C235.621 27.748 233.677 28.324 231.349 28.324C229.453 28.324 227.749 27.904 226.237 27.064C224.749 26.2 223.573 25 222.709 23.464C221.869 21.904 221.449 20.104 221.449 18.064C221.449 16.024 221.857 14.236 222.673 12.7C223.513 11.14 224.677 9.94 226.165 9.1C227.677 8.26 229.405 7.84 231.349 7.84C233.221 7.84 234.889 8.248 236.353 9.064C237.817 9.88 238.957 11.032 239.773 12.52C240.589 13.984 240.997 15.676 240.997 17.596ZM236.713 16.3C236.689 14.788 236.149 13.576 235.093 12.664C234.037 11.752 232.729 11.296 231.169 11.296C229.753 11.296 228.541 11.752 227.533 12.664C226.525 13.552 225.925 14.764 225.733 16.3H236.713ZM249.14 1.36V28H245.036V1.36H249.14ZM281.168 8.164L275.012 28H270.692L266.696 13.348L262.7 28H258.38L252.188 8.164H256.364L260.504 24.112L264.716 8.164H269L273.032 24.04L277.136 8.164H281.168ZM282.867 17.992C282.867 16 283.275 14.236 284.091 12.7C284.931 11.164 286.059 9.976 287.475 9.136C288.915 8.272 290.499 7.84 292.227 7.84C293.787 7.84 295.143 8.152 296.295 8.776C297.471 9.376 298.407 10.132 299.103 11.044V8.164H303.243V28H299.103V25.048C298.407 25.984 297.459 26.764 296.259 27.388C295.059 28.012 293.691 28.324 292.155 28.324C290.451 28.324 288.891 27.892 287.475 27.028C286.059 26.14 284.931 24.916 284.091 23.356C283.275 21.772 282.867 19.984 282.867 17.992ZM299.103 18.064C299.103 16.696 298.815 15.508 298.239 14.5C297.687 13.492 296.955 12.724 296.043 12.196C295.131 11.668 294.147 11.404 293.091 11.404C292.035 11.404 291.051 11.668 290.139 12.196C289.227 12.7 288.483 13.456 287.907 14.464C287.355 15.448 287.079 16.624 287.079 17.992C287.079 19.36 287.355 20.56 287.907 21.592C288.483 22.624 289.227 23.416 290.139 23.968C291.075 24.496 292.059 24.76 293.091 24.76C294.147 24.76 295.131 24.496 296.043 23.968C296.955 23.44 297.687 22.672 298.239 21.664C298.815 20.632 299.103 19.432 299.103 18.064ZM312.738 1.36V28H308.634V1.36H312.738Z" fill="#F5F5F5"/>
</svg>
